<svg
	id="visual"
	viewBox="0 0 900 600"
	xmlns="http://www.w3.org/2000/svg"
	xmlns:xlink="http://www.w3.org/1999/xlink"
	version="1.1"
>
	<path
		d="M0 553L15 553.3C30 553.7 60 554.3 90 554.7C120 555 150 555 180 555.3C210 555.7 240 556.3 270 555.3C300 554.3 330 551.7 360 550.3C390 549 420 549 450 551C480 553 510 557 540 559C570 561 600 561 630 560.7C660 560.3 690 559.7 720 557.7C750 555.7 780 552.3 810 551C840 549.7 870 550.3 885 550.7L900 551L900 601L885 601C870 601 840 601 810 601C780 601 750 601 720 601C690 601 660 601 630 601C600 601 570 601 540 601C510 601 480 601 450 601C420 601 390 601 360 601C330 601 300 601 270 601C240 601 210 601 180 601C150 601 120 601 90 601C60 601 30 601 15 601L0 601Z"
		fill="#fa7268"
	></path>
	<path
		d="M0 568L15 568.3C30 568.7 60 569.3 90 570C120 570.7 150 571.3 180 570.8C210 570.3 240 568.7 270 567.5C300 566.3 330 565.7 360 565C390 564.3 420 563.7 450 563C480 562.3 510 561.7 540 563C570 564.3 600 567.7 630 568.2C660 568.7 690 566.3 720 565.8C750 565.3 780 566.7 810 567.8C840 569 870 570 885 570.5L900 571L900 601L885 601C870 601 840 601 810 601C780 601 750 601 720 601C690 601 660 601 630 601C600 601 570 601 540 601C510 601 480 601 450 601C420 601 390 601 360 601C330 601 300 601 270 601C240 601 210 601 180 601C150 601 120 601 90 601C60 601 30 601 15 601L0 601Z"
		fill="#eb5967"
	></path>
	<path
		d="M0 573L15 573C30 573 60 573 90 573.2C120 573.3 150 573.7 180 575.2C210 576.7 240 579.3 270 580.2C300 581 330 580 360 579C390 578 420 577 450 576.2C480 575.3 510 574.7 540 574.5C570 574.3 600 574.7 630 574.2C660 573.7 690 572.3 720 572.2C750 572 780 573 810 573.7C840 574.3 870 574.7 885 574.8L900 575L900 601L885 601C870 601 840 601 810 601C780 601 750 601 720 601C690 601 660 601 630 601C600 601 570 601 540 601C510 601 480 601 450 601C420 601 390 601 360 601C330 601 300 601 270 601C240 601 210 601 180 601C150 601 120 601 90 601C60 601 30 601 15 601L0 601Z"
		fill="#da3f67"
	></path>
	<path
		d="M0 591L15 589.5C30 588 60 585 90 584.3C120 583.7 150 585.3 180 586.7C210 588 240 589 270 589.5C300 590 330 590 360 589.8C390 589.7 420 589.3 450 588C480 586.7 510 584.3 540 583.5C570 582.7 600 583.3 630 584.3C660 585.3 690 586.7 720 587C750 587.3 780 586.7 810 587.2C840 587.7 870 589.3 885 590.2L900 591L900 601L885 601C870 601 840 601 810 601C780 601 750 601 720 601C690 601 660 601 630 601C600 601 570 601 540 601C510 601 480 601 450 601C420 601 390 601 360 601C330 601 300 601 270 601C240 601 210 601 180 601C150 601 120 601 90 601C60 601 30 601 15 601L0 601Z"
		fill="#c62368"
	></path>
</svg>