<svg id="visual" viewBox="0 0 900 600" xmlns="http://www.w3.org/2000/svg"
	xmlns:xlink="http://www.w3.org/1999/xlink" version="1.1">
	<path
		d="M0 43L64 43L64 55L129 55L129 37L193 37L193 55L257 55L257 55L321 55L321 55L386 55L386 79L450 79L450 85L514 85L514 85L579 85L579 73L643 73L643 49L707 49L707 49L771 49L771 49L836 49L836 85L900 85L900 85L900 0L900 0L836 0L836 0L771 0L771 0L707 0L707 0L643 0L643 0L579 0L579 0L514 0L514 0L450 0L450 0L386 0L386 0L321 0L321 0L257 0L257 0L193 0L193 0L129 0L129 0L64 0L64 0L0 0Z"
		fill="#f43f5e"></path>
	<path
		d="M0 157L64 157L64 193L129 193L129 211L193 211L193 259L257 259L257 157L321 157L321 289L386 289L386 187L450 187L450 295L514 295L514 313L579 313L579 301L643 301L643 253L707 253L707 265L771 265L771 241L836 241L836 211L900 211L900 193L900 83L900 83L836 83L836 47L771 47L771 47L707 47L707 47L643 47L643 71L579 71L579 83L514 83L514 83L450 83L450 77L386 77L386 53L321 53L321 53L257 53L257 53L193 53L193 35L129 35L129 53L64 53L64 41L0 41Z"
		fill="#c6326e"></path>
	<path
		d="M0 343L64 343L64 385L129 385L129 343L193 343L193 421L257 421L257 361L321 361L321 409L386 409L386 367L450 367L450 379L514 379L514 421L579 421L579 415L643 415L643 343L707 343L707 385L771 385L771 355L836 355L836 397L900 397L900 367L900 191L900 209L836 209L836 239L771 239L771 263L707 263L707 251L643 251L643 299L579 299L579 311L514 311L514 293L450 293L450 185L386 185L386 287L321 287L321 155L257 155L257 257L193 257L193 209L129 209L129 191L64 191L64 155L0 155Z"
		fill="#903171"></path>
	<path
		d="M0 463L64 463L64 457L129 457L129 469L193 469L193 487L257 487L257 463L321 463L321 469L386 469L386 499L450 499L450 451L514 451L514 493L579 493L579 493L643 493L643 451L707 451L707 475L771 475L771 487L836 487L836 475L900 475L900 487L900 365L900 395L836 395L836 353L771 353L771 383L707 383L707 341L643 341L643 413L579 413L579 419L514 419L514 377L450 377L450 365L386 365L386 407L321 407L321 359L257 359L257 419L193 419L193 341L129 341L129 383L64 383L64 341L0 341Z"
		fill="#5b2e64"></path>
	<path
		d="M0 529L64 529L64 553L129 553L129 547L193 547L193 547L257 547L257 565L321 565L321 559L386 559L386 565L450 565L450 553L514 553L514 553L579 553L579 559L643 559L643 547L707 547L707 523L771 523L771 565L836 565L836 523L900 523L900 559L900 485L900 473L836 473L836 485L771 485L771 473L707 473L707 449L643 449L643 491L579 491L579 491L514 491L514 449L450 449L450 497L386 497L386 467L321 467L321 461L257 461L257 485L193 485L193 467L129 467L129 455L64 455L64 461L0 461Z"
		fill="#2d254b"></path>
	<path
		d="M0 601L64 601L64 601L129 601L129 601L193 601L193 601L257 601L257 601L321 601L321 601L386 601L386 601L450 601L450 601L514 601L514 601L579 601L579 601L643 601L643 601L707 601L707 601L771 601L771 601L836 601L836 601L900 601L900 601L900 557L900 521L836 521L836 563L771 563L771 521L707 521L707 545L643 545L643 557L579 557L579 551L514 551L514 551L450 551L450 563L386 563L386 557L321 557L321 563L257 563L257 545L193 545L193 545L129 545L129 551L64 551L64 527L0 527Z"
		fill="#0f172a"></path>
</svg>