<svg xmlns="http://www.w3.org/2000/svg" version="1.1" xmlns:xlink="http://www.w3.org/1999/xlink"
	xmlns:svgjs="http://svgjs.dev/svgjs" width="1440" height="560" preserveAspectRatio="none"
	viewBox="0 0 1440 560">
	<g mask="url(&quot;#SvgjsMask1027&quot;)" fill="none">
		<path d="M948 232L1323 -143" stroke-width="8" stroke="url(&quot;#SvgjsLinearGradient1028&quot;)"
			stroke-linecap="round" class="BottomLeft"></path>
		<path d="M587 73L361 299" stroke-width="8" stroke="url(&quot;#SvgjsLinearGradient1029&quot;)"
			stroke-linecap="round" class="TopRight"></path>
		<path d="M806 332L552 586" stroke-width="6" stroke="url(&quot;#SvgjsLinearGradient1028&quot;)"
			stroke-linecap="round" class="BottomLeft"></path>
		<path d="M752 184L514 422" stroke-width="10" stroke="url(&quot;#SvgjsLinearGradient1029&quot;)"
			stroke-linecap="round" class="TopRight"></path>
		<path d="M492 549L148 893" stroke-width="6" stroke="url(&quot;#SvgjsLinearGradient1029&quot;)"
			stroke-linecap="round" class="TopRight"></path>
		<path d="M101 9L-137 247" stroke-width="10" stroke="url(&quot;#SvgjsLinearGradient1028&quot;)"
			stroke-linecap="round" class="BottomLeft"></path>
		<path d="M391 351L672 70" stroke-width="10" stroke="url(&quot;#SvgjsLinearGradient1029&quot;)"
			stroke-linecap="round" class="TopRight"></path>
		<path d="M845 236L1004 77" stroke-width="10" stroke="url(&quot;#SvgjsLinearGradient1029&quot;)"
			stroke-linecap="round" class="TopRight"></path>
		<path d="M767 250L626 391" stroke-width="6" stroke="url(&quot;#SvgjsLinearGradient1028&quot;)"
			stroke-linecap="round" class="BottomLeft"></path>
		<path d="M1287 408L1525 170" stroke-width="8" stroke="url(&quot;#SvgjsLinearGradient1028&quot;)"
			stroke-linecap="round" class="BottomLeft"></path>
		<path d="M727 233L503 457" stroke-width="8" stroke="url(&quot;#SvgjsLinearGradient1029&quot;)"
			stroke-linecap="round" class="TopRight"></path>
		<path d="M283 428L613 98" stroke-width="10" stroke="url(&quot;#SvgjsLinearGradient1029&quot;)"
			stroke-linecap="round" class="TopRight"></path>
		<path d="M1242 386L1477 151" stroke-width="8" stroke="url(&quot;#SvgjsLinearGradient1028&quot;)"
			stroke-linecap="round" class="BottomLeft"></path>
		<path d="M9 303L253 59" stroke-width="6" stroke="url(&quot;#SvgjsLinearGradient1029&quot;)"
			stroke-linecap="round" class="TopRight"></path>
		<path d="M709 470L355 824" stroke-width="8" stroke="url(&quot;#SvgjsLinearGradient1028&quot;)"
			stroke-linecap="round" class="BottomLeft"></path>
		<path d="M1282 305L1076 511" stroke-width="8" stroke="url(&quot;#SvgjsLinearGradient1028&quot;)"
			stroke-linecap="round" class="BottomLeft"></path>
		<path d="M729 435L1005 159" stroke-width="10" stroke="url(&quot;#SvgjsLinearGradient1028&quot;)"
			stroke-linecap="round" class="BottomLeft"></path>
		<path d="M951 199L748 402" stroke-width="10" stroke="url(&quot;#SvgjsLinearGradient1029&quot;)"
			stroke-linecap="round" class="TopRight"></path>
		<path d="M54 133L404 -217" stroke-width="10" stroke="url(&quot;#SvgjsLinearGradient1029&quot;)"
			stroke-linecap="round" class="TopRight"></path>
		<path d="M601 230L251 580" stroke-width="8" stroke="url(&quot;#SvgjsLinearGradient1028&quot;)"
			stroke-linecap="round" class="BottomLeft"></path>
		<path d="M732 479L919 292" stroke-width="8" stroke="url(&quot;#SvgjsLinearGradient1028&quot;)"
			stroke-linecap="round" class="BottomLeft"></path>
		<path d="M1024 405L770 659" stroke-width="6" stroke="url(&quot;#SvgjsLinearGradient1028&quot;)"
			stroke-linecap="round" class="BottomLeft"></path>
		<path d="M210 99L14 295" stroke-width="10" stroke="url(&quot;#SvgjsLinearGradient1028&quot;)"
			stroke-linecap="round" class="BottomLeft"></path>
		<path d="M404 560L678 286" stroke-width="10" stroke="url(&quot;#SvgjsLinearGradient1028&quot;)"
			stroke-linecap="round" class="BottomLeft"></path>
		<path d="M1043 435L1417 61" stroke-width="8" stroke="url(&quot;#SvgjsLinearGradient1028&quot;)"
			stroke-linecap="round" class="BottomLeft"></path>
		<path d="M131 33L482 -318" stroke-width="6" stroke="url(&quot;#SvgjsLinearGradient1029&quot;)"
			stroke-linecap="round" class="TopRight"></path>
		<path d="M851 57L1172 -264" stroke-width="6" stroke="url(&quot;#SvgjsLinearGradient1029&quot;)"
			stroke-linecap="round" class="TopRight"></path>
		<path d="M1385 557L1589 353" stroke-width="10"
			stroke="url(&quot;#SvgjsLinearGradient1029&quot;)" stroke-linecap="round" class="TopRight"></path>
		<path d="M83 437L-165 685" stroke-width="8" stroke="url(&quot;#SvgjsLinearGradient1029&quot;)"
			stroke-linecap="round" class="TopRight"></path>
		<path d="M1373 357L1663 67" stroke-width="8" stroke="url(&quot;#SvgjsLinearGradient1029&quot;)"
			stroke-linecap="round" class="TopRight"></path>
		<path d="M311 369L710 -30" stroke-width="6" stroke="url(&quot;#SvgjsLinearGradient1029&quot;)"
			stroke-linecap="round" class="TopRight"></path>
		<path d="M201 38L-12 251" stroke-width="10" stroke="url(&quot;#SvgjsLinearGradient1028&quot;)"
			stroke-linecap="round" class="BottomLeft"></path>
		<path d="M982 460L1147 295" stroke-width="6" stroke="url(&quot;#SvgjsLinearGradient1029&quot;)"
			stroke-linecap="round" class="TopRight"></path>
		<path d="M1292 451L988 755" stroke-width="10" stroke="url(&quot;#SvgjsLinearGradient1029&quot;)"
			stroke-linecap="round" class="TopRight"></path>
		<path d="M1110 316L825 601" stroke-width="8" stroke="url(&quot;#SvgjsLinearGradient1028&quot;)"
			stroke-linecap="round" class="BottomLeft"></path>
		<path d="M1361 317L1113 565" stroke-width="8" stroke="url(&quot;#SvgjsLinearGradient1029&quot;)"
			stroke-linecap="round" class="TopRight"></path>
		<path d="M483 70L634 -81" stroke-width="10" stroke="url(&quot;#SvgjsLinearGradient1028&quot;)"
			stroke-linecap="round" class="BottomLeft"></path>
		<path d="M312 126L57 381" stroke-width="6" stroke="url(&quot;#SvgjsLinearGradient1029&quot;)"
			stroke-linecap="round" class="TopRight"></path>
		<path d="M1297 480L1647 130" stroke-width="6" stroke="url(&quot;#SvgjsLinearGradient1028&quot;)"
			stroke-linecap="round" class="BottomLeft"></path>
	</g>
	<defs>
		<mask id="SvgjsMask1027">
			<rect width="1440" height="560" fill="#ffffff"></rect>
		</mask>
		<linearGradient x1="100%" y1="0%" x2="0%" y2="100%" id="SvgjsLinearGradient1028">
			<stop stop-color="rgba(220, 38, 38, 0)" offset="0"></stop>
			<stop stop-color="rgba(220, 38, 38, 1)" offset="1"></stop>
		</linearGradient>
		<linearGradient x1="0%" y1="100%" x2="100%" y2="0%" id="SvgjsLinearGradient1029">
			<stop stop-color="rgba(220, 38, 38, 0)" offset="0"></stop>
			<stop stop-color="rgba(220, 38, 38, 1)" offset="1"></stop>
		</linearGradient>
	</defs>
</svg>