<svg
	id="visual"
	viewBox="0 0 900 100"
	xmlns="http://www.w3.org/2000/svg"
	xmlns:xlink="http://www.w3.org/1999/xlink"
	version="1.1"
>
	<path
		d="M0 45L15 44.7C30 44.3 60 43.7 90 43.3C120 43 150 43 180 42.7C210 42.3 240 41.7 270 42.7C300 43.7 330 46.3 360 47.7C390 49 420 49 450 47C480 45 510 41 540 39C570 37 600 37 630 37.3C660 37.7 690 38.3 720 40.3C750 42.3 780 45.7 810 47C840 48.3 870 47.7 885 47.3L900 47L900 0L885 0C870 0 840 0 810 0C780 0 750 0 720 0C690 0 660 0 630 0C600 0 570 0 540 0C510 0 480 0 450 0C420 0 390 0 360 0C330 0 300 0 270 0C240 0 210 0 180 0C150 0 120 0 90 0C60 0 30 0 15 0L0 0Z"
		fill="#fa7268"
	></path>
	<path
		d="M0 30L15 29.7C30 29.3 60 28.7 90 28C120 27.3 150 26.7 180 27.2C210 27.7 240 29.3 270 30.5C300 31.7 330 32.3 360 33C390 33.7 420 34.3 450 35C480 35.7 510 36.3 540 35C570 33.7 600 30.3 630 29.8C660 29.3 690 31.7 720 32.2C750 32.7 780 31.3 810 30.2C840 29 870 28 885 27.5L900 27L900 0L885 0C870 0 840 0 810 0C780 0 750 0 720 0C690 0 660 0 630 0C600 0 570 0 540 0C510 0 480 0 450 0C420 0 390 0 360 0C330 0 300 0 270 0C240 0 210 0 180 0C150 0 120 0 90 0C60 0 30 0 15 0L0 0Z"
		fill="#eb5967"
	></path>
	<path
		d="M0 25L15 25C30 25 60 25 90 24.8C120 24.7 150 24.3 180 22.8C210 21.3 240 18.7 270 17.8C300 17 330 18 360 19C390 20 420 21 450 21.8C480 22.7 510 23.3 540 23.5C570 23.7 600 23.3 630 23.8C660 24.3 690 25.7 720 25.8C750 26 780 25 810 24.3C840 23.7 870 23.3 885 23.2L900 23L900 0L885 0C870 0 840 0 810 0C780 0 750 0 720 0C690 0 660 0 630 0C600 0 570 0 540 0C510 0 480 0 450 0C420 0 390 0 360 0C330 0 300 0 270 0C240 0 210 0 180 0C150 0 120 0 90 0C60 0 30 0 15 0L0 0Z"
		fill="#da3f67"
	></path>
	<path
		d="M0 7L15 8.5C30 10 60 13 90 13.7C120 14.3 150 12.7 180 11.3C210 10 240 9 270 8.5C300 8 330 8 360 8.2C390 8.3 420 8.7 450 10C480 11.3 510 13.7 540 14.5C570 15.3 600 14.7 630 13.7C660 12.7 690 11.3 720 11C750 10.7 780 11.3 810 10.8C840 10.3 870 8.7 885 7.8L900 7L900 0L885 0C870 0 840 0 810 0C780 0 750 0 720 0C690 0 660 0 630 0C600 0 570 0 540 0C510 0 480 0 450 0C420 0 390 0 360 0C330 0 300 0 270 0C240 0 210 0 180 0C150 0 120 0 90 0C60 0 30 0 15 0L0 0Z"
		fill="#c62368"
	></path>
</svg>