<svg xmlns="http://www.w3.org/2000/svg" version="1.1" xmlns:xlink="http://www.w3.org/1999/xlink"
	xmlns:svgjs="http://svgjs.com/svgjs" width="1920" height="1080" preserveAspectRatio="none"
	viewBox="0 0 1920 1080">
	<g mask="url(&quot;#SvgjsMask1018&quot;)" fill="none">
		<rect width="1920" height="1080" x="0" y="0" fill="url(#SvgjsLinearGradient1019)"></rect>
		<path d="M855.85 1021.54 a353.3 353.3 0 1 0 706.6 0 a353.3 353.3 0 1 0 -706.6 0z"
			fill="rgba(218, 63, 103, 1.00)" class="triangle-float1"></path>
		<path
			d="M320.0739946157357 241.93818354957102L174.95485036079322 128.55868201222955 61.57534882345175 273.67782626717207 206.69449307839426 387.05732780451353z"
			fill="rgba(218, 63, 103, 1.00)" class="triangle-float1"></path>
		<path
			d="M1277.176257904833 600.0364733132296L1412.7283335018412 801.4144032711979 1509.0657761879738 612.3415261818936z"
			fill="rgba(218, 63, 103, 1.00)" class="triangle-float1"></path>
		<path d="M114.7 747.28 a318.07 318.07 0 1 0 636.14 0 a318.07 318.07 0 1 0 -636.14 0z"
			fill="rgba(218, 63, 103, 1.00)" class="triangle-float1"></path>
		<path
			d="M510.1496640395525 645.7442495925952L753.9200879759287 468.63466953292186 576.8105079162553 224.86424559654557 333.0400839798791 401.973825656219z"
			fill="rgba(218, 63, 103, 1.00)" class="triangle-float2"></path>
		<path
			d="M682.4783282099658 272.7234953189818L655.0342554551171 77.44877098022266 459.75953111635795 104.89284373507132 487.2036038712066 300.16756807383047z"
			fill="rgba(218, 63, 103, 1.00)" class="triangle-float3"></path>
		<path
			d="M1029.6258305943047 215.01069377231838L1018.8697359009664 523.0249457457808 1337.640082567767 225.76678846565676z"
			fill="rgba(218, 63, 103, 1.00)" class="triangle-float1"></path>
		<path d="M1056.19 987.83 a180.29 180.29 0 1 0 360.58 0 a180.29 180.29 0 1 0 -360.58 0z"
			fill="rgba(218, 63, 103, 1.00)" class="triangle-float1"></path>
		<path
			d="M1378.0388057140367 541.1672013576808L1673.6165278417507 556.9402531311764 1560.18841178426 324.37815103540163z"
			fill="rgba(218, 63, 103, 1.00)" class="triangle-float3"></path>
		<path
			d="M340.49759066078866 209.96870407820194L69.67541452419235 365.9840171077576 303.86634170853995 506.70012258638303z"
			fill="rgba(218, 63, 103, 1.00)" class="triangle-float1"></path>
		<path
			d="M1602.3425613633026 565.773732773501L1854.9633072658628 717.5635905357174 1754.132419125519 313.1529868709409z"
			fill="rgba(218, 63, 103, 1.00)" class="triangle-float1"></path>
		<path
			d="M1286.3113794870628 140.97662228751392L1422.6485347176244 68.48487096552931 1245.7423301193667-99.77498621932045z"
			fill="rgba(218, 63, 103, 1.00)" class="triangle-float3"></path>
	</g>
	<defs>
		<mask id="SvgjsMask1018">
			<rect width="1920" height="1080" fill="#ffffff"></rect>
		</mask>

		<style>
			@keyframes float1 {
			0%{transform: translate(0, 0)}
			50%{transform: translate(-10px, 0)}
			100%{transform: translate(0, 0)}
			}

			.triangle-float1 {
			animation: float1 5s infinite;
			}

			@keyframes float2 {
			0%{transform: translate(0, 0)}
			50%{transform: translate(-5px, -5px)}
			100%{transform: translate(0, 0)}
			}

			.triangle-float2 {
			animation: float2 4s infinite;
			}

			@keyframes float3 {
			0%{transform: translate(0, 0)}
			50%{transform: translate(0, -10px)}
			100%{transform: translate(0, 0)}
			}

			.triangle-float3 {
			animation: float3 6s infinite;
			}

			path {
			stroke: #742d71;
			stroke-width: 1.25px;
			stroke-linejoin: round;
			}
		</style>
	</defs>
</svg>