<svg xmlns="http://www.w3.org/2000/svg" version="1.1" xmlns:xlink="http://www.w3.org/1999/xlink"
	width="1440" height="560" preserveAspectRatio="none"
	viewBox="0 0 1440 560">
	<g clip-path="url(&quot;#SvgjsClipPath1034&quot;)" fill="none">
		<circle r="93.335" cx="-9.38" cy="72.11" stroke="#c62368" stroke-opacity="1" stroke-width="2"></circle>
		<circle r="93.335" cx="451.09" cy="303.55" stroke="#c62368" stroke-opacity="1" stroke-width="2"></circle>
		<circle r="93.335" cx="822.2" cy="832.52" stroke="#c62368" stroke-opacity="1" stroke-width="2"></circle>
		<circle r="105.285" cx="1160.01" cy="522.01" stroke="#c62368" stroke-opacity="1"
			stroke-width="2"></circle>
		<circle r="127.305" cx="1315.99" cy="243.11" stroke="#c62368" stroke-opacity="1"
			stroke-width="2"></circle>
		<circle r="127.655" cx="1079.69" cy="223.46" stroke="#c62368" stroke-opacity="1"
			stroke-width="2"></circle>
		<circle r="126.585" cx="82.58" cy="94.56" stroke="#c62368" stroke-opacity="1" stroke-width="2"></circle>
		<circle r="106.955" cx="61.33" cy="391.58" stroke="#c62368" stroke-opacity="1" stroke-width="2"></circle>
		<circle r="167.975" cx="628.96" cy="48.25" stroke="#c62368" stroke-opacity="1" stroke-width="2"></circle>
		<circle r="169.605" cx="899.14" cy="552.16" stroke="#c62368" stroke-opacity="1" stroke-width="2"></circle>
		<circle r="122.94" cx="1065.96" cy="491.76" stroke="#c62368" stroke-opacity="1" stroke-width="2"></circle>
		<circle r="77.115" cx="35.96" cy="334.41" stroke="#c62368" stroke-opacity="1" stroke-width="2"></circle>
		<circle r="111.73" cx="1341.42" cy="497.11" stroke="#c62368" stroke-opacity="1" stroke-width="2"></circle>
		<circle r="111.575" cx="493.29" cy="212.64" stroke="#c62368" stroke-opacity="1" stroke-width="2"></circle>
		<circle r="123.67" cx="1168.72" cy="406.95" stroke="#c62368" stroke-opacity="1" stroke-width="2"></circle>
		<circle r="177.405" cx="512.23" cy="524.25" stroke="#c62368" stroke-opacity="1" stroke-width="2"></circle>
		<circle r="178.13" cx="200.82" cy="23.95" stroke="#c62368" stroke-opacity="1" stroke-width="2"></circle>
		<circle r="151.295" cx="567.45" cy="464.02" stroke="#c62368" stroke-opacity="1" stroke-width="2"></circle>
		<circle r="172.135" cx="184.81" cy="372.95" stroke="#c62368" stroke-opacity="1" stroke-width="2"></circle>
		<circle r="168.075" cx="977.55" cy="125.39" stroke="#c62368" stroke-opacity="1" stroke-width="2"></circle>
	</g>
	<defs>
		<clipPath id="SvgjsClipPath1034">
			<rect width="1440" height="560" x="0" y="0"></rect>
		</clipPath>
	</defs>
</svg>