<svg xmlns="http://www.w3.org/2000/svg" xmlns:xlink="http://www.w3.org/1999/xlink" width="1440" height="560" preserveAspectRatio="none" version="1.1" viewBox="0 0 1440 560"><g fill="none" clip-path="url(&quot;#SvgjsClipPath1034&quot;)"><circle cx="-9.38" cy="72.11" r="93.335" stroke="#c62368" stroke-opacity="1" stroke-width="2"/><circle cx="451.09" cy="303.55" r="93.335" stroke="#c62368" stroke-opacity="1" stroke-width="2"/><circle cx="822.2" cy="832.52" r="93.335" stroke="#c62368" stroke-opacity="1" stroke-width="2"/><circle cx="1160.01" cy="522.01" r="105.285" stroke="#c62368" stroke-opacity="1" stroke-width="2"/><circle cx="1315.99" cy="243.11" r="127.305" stroke="#c62368" stroke-opacity="1" stroke-width="2"/><circle cx="1079.69" cy="223.46" r="127.655" stroke="#c62368" stroke-opacity="1" stroke-width="2"/><circle cx="82.58" cy="94.56" r="126.585" stroke="#c62368" stroke-opacity="1" stroke-width="2"/><circle cx="61.33" cy="391.58" r="106.955" stroke="#c62368" stroke-opacity="1" stroke-width="2"/><circle cx="628.96" cy="48.25" r="167.975" stroke="#c62368" stroke-opacity="1" stroke-width="2"/><circle cx="899.14" cy="552.16" r="169.605" stroke="#c62368" stroke-opacity="1" stroke-width="2"/><circle cx="1065.96" cy="491.76" r="122.94" stroke="#c62368" stroke-opacity="1" stroke-width="2"/><circle cx="35.96" cy="334.41" r="77.115" stroke="#c62368" stroke-opacity="1" stroke-width="2"/><circle cx="1341.42" cy="497.11" r="111.73" stroke="#c62368" stroke-opacity="1" stroke-width="2"/><circle cx="493.29" cy="212.64" r="111.575" stroke="#c62368" stroke-opacity="1" stroke-width="2"/><circle cx="1168.72" cy="406.95" r="123.67" stroke="#c62368" stroke-opacity="1" stroke-width="2"/><circle cx="512.23" cy="524.25" r="177.405" stroke="#c62368" stroke-opacity="1" stroke-width="2"/><circle cx="200.82" cy="23.95" r="178.13" stroke="#c62368" stroke-opacity="1" stroke-width="2"/><circle cx="567.45" cy="464.02" r="151.295" stroke="#c62368" stroke-opacity="1" stroke-width="2"/><circle cx="184.81" cy="372.95" r="172.135" stroke="#c62368" stroke-opacity="1" stroke-width="2"/><circle cx="977.55" cy="125.39" r="168.075" stroke="#c62368" stroke-opacity="1" stroke-width="2"/></g><defs><clipPath id="SvgjsClipPath1034"><rect width="1440" height="560" x="0" y="0"/></clipPath></defs></svg>