<svg xmlns="http://www.w3.org/2000/svg" viewBox="0 0 512 512" width="512" height="512" preserveAspectRatio="none"> <path d="M1.6-1.8l80.9,9.2 M0,0l73.5,133.5 M83.9-1.3l-1.4,8.8 M82.5,7.5l-7.5-9 M179.5,36.5l-97-29 M157.5-2.5l22,39 M190.5-1.5l-11,38 M305.5,6.5l-8-9 M305.5-3.5v10 M212.5,102.5l-33-66 M305.5,114.5V6.5 M389.5-2.5l2,4 M411.5,122.5l-20-121 M483.5,115.5l-92-114 M102.5,220.5l-29-87 M179.5,36.5l126-30 M212.5,102.5l93,12 M305.5,6.5 l-93,96 M391.5,1.5l-86,5 M305.5,114.5l86-113 M411.5,122.5l-105-8 M212.5,102.5l-139,31 M179.5,36.5l-106,97 M82.5,7.5l-9,126 M-1.5,120.5l75,13 M-1.5,230.5l75-97 M-1.5,233.5l104-13 M212.5,102.5l-110,118 M213.5,241.5l-111-21 M212.5,102.5l1,139 M305.5,114.5l-92,127 M318.5,235.5l-105,6 M305.5,114.5l13,121 M405.5,223.5l-100-109 M411.5,122.5l-6,101 M318.5,235.5l87-12 M411.5,122.5l73-7 M405.5,223.5l79-108 M391.5,1.5l123.9-2 M483.5,115.5l28-116 M508.5,234.5l-103-11 M484.5,115.5l24,119 M513.5,120.5l-30-5 M318.5,235.5l64,94 M405.5,223.5l-23,106 M508.5,234.5l-126,95 M514.5,337.5l-132-8 M512.5,416.5l-130-87 M415.5,445.5l97-29 M382.5,329.5l33,116 M513.5,511.5l-98-66 M390.5,513.5l25-68 M292.5,414.5l123,31 M392.5,513.5l-100-99 M382.5,329.5l-90,85 M316.5,306.5l-24,108 M382.5,329.5l-66-23 M318.5,235.5l-2,71 M213.5,241.5l103,65 M201.5,342.5l115-36 M213.5,241.5l-12,101 M215.5,432.5l-14-90 M292.5,414.5l-77,18 M201.5,342.5l91,72 M215.5,432.5l92,87 M292.5,414.5l14,105 M215.5,432.5l-26,82 M108.5,427.5l107,5 M201.5,342.5l-93,85 M159.5,513.5l-51-86 M83.5,512.5l25-85 M-1.5,416.5l110,11 M76.5,512.5l-78-96 M91.5,313.5l17,114 M9.5,337.5l99,90 M-1.5,416.5l11-79 M-2.5,337.5h12 M91.5,313.5l-82,24 M91.5,313.5l11-93 M91.5,313.5l122-72 M-0.5,236.5l92,77 M201.5,342.5l-110-29 M9.5,337.5l-13.4-102 M508.5,234.5l5-7 M514.5,232.5l-6,2 M513.5,239.5 l-5-5 M517.6,313.9l-9.1-79.4 M-1.5,416.5l2,95.9 M511.5,416.5l1,94 M417.3,514.1l96.2-2.6 M510.5,415.5l5.3-38.4 M0.5,510.5 l30.4,2.6" vector-effect="non-scaling-stroke" fill="none" stroke="rgba(255,255,255,0.02)" stroke-width="2.01px" /></svg>