<svg xmlns="http://www.w3.org/2000/svg" xmlns:xlink="http://www.w3.org/1999/xlink" width="1440" height="560" preserveAspectRatio="none"><g fill="none" mask="url(&quot;#a&quot;)"><use xlink:href="#b"/><use x="720" xlink:href="#b"/></g><defs><path id="f" d="M-1 0a1 1 0 1 0 2 0 1 1 0 1 0-2 0z"/><path id="d" d="M-3 0a3 3 0 1 0 6 0 3 3 0 1 0-6 0z"/><path id="c" d="M-5 0A5 5 0 1 0 5 0 5 5 0 1 0-5 0z"/><path id="g" d="m2-2-4 4z"/><path id="e" d="M6-6-6 6z"/><path id="h" d="m30-30-60 60z"/><mask id="a"><path fill="#fff" d="M0 0h1440v560H0z"/></mask></defs><symbol id="b"><use x="30" y="30" stroke="rgba(5, 25, 41, 1)" xlink:href="#c"/><use x="30" y="90" stroke="rgba(116, 45, 113, 1)" xlink:href="#c"/><use x="30" y="150" stroke="rgba(23, 23, 24, 1)" xlink:href="#d"/><use x="30" y="210" stroke="rgba(23, 23, 24, 1)" xlink:href="#e"/><use x="30" y="270" stroke="rgba(116, 45, 113, 1)" xlink:href="#e"/><use x="30" y="330" stroke="rgba(116, 45, 113, 1)" xlink:href="#e"/><use x="30" y="390" stroke="rgba(116, 45, 113, 1)" xlink:href="#f"/><use x="30" y="450" stroke="rgba(23, 23, 24, 1)" xlink:href="#g"/><use x="30" y="510" stroke="rgba(116, 45, 113, 1)" xlink:href="#e"/><use x="30" y="570" stroke="rgba(116, 45, 113, 1)" xlink:href="#c"/><use x="90" y="30" stroke="rgba(5, 25, 41, 1)" xlink:href="#c"/><use x="90" y="90" stroke="rgba(116, 45, 113, 1)" xlink:href="#c"/><use x="90" y="150" stroke="rgba(116, 45, 113, 1)" xlink:href="#c"/><use x="90" y="210" stroke="rgba(116, 45, 113, 1)" xlink:href="#e"/><use x="90" y="270" stroke="rgba(23, 23, 24, 1)" xlink:href="#f"/><use x="90" y="330" stroke="rgba(116, 45, 113, 1)" xlink:href="#e"/><use x="90" y="390" stroke="rgba(5, 25, 41, 1)" xlink:href="#g"/><use x="90" y="450" stroke="rgba(5, 25, 41, 1)" xlink:href="#e"/><use x="90" y="510" stroke="rgba(23, 23, 24, 1)" xlink:href="#c"/><use x="90" y="570" stroke="rgba(116, 45, 113, 1)" xlink:href="#g"/><use x="150" y="30" stroke="rgba(23, 23, 24, 1)" xlink:href="#c"/><use x="150" y="90" stroke="rgba(23, 23, 24, 1)" xlink:href="#f"/><use x="150" y="150" stroke="rgba(5, 25, 41, 1)" xlink:href="#c"/><use x="150" y="210" stroke="rgba(23, 23, 24, 1)" xlink:href="#g"/><use x="150" y="270" stroke="rgba(23, 23, 24, 1)" xlink:href="#c"/><use x="150" y="330" stroke="rgba(23, 23, 24, 1)" xlink:href="#f"/><use x="150" y="390" stroke="rgba(5, 25, 41, 1)" xlink:href="#c"/><use x="150" y="450" stroke="rgba(23, 23, 24, 1)" xlink:href="#c"/><use x="150" y="510" stroke="rgba(5, 25, 41, 1)" xlink:href="#e"/><use x="150" y="570" stroke="rgba(5, 25, 41, 1)" xlink:href="#c"/><use x="210" y="30" stroke="rgba(5, 25, 41, 1)" xlink:href="#c"/><use x="210" y="90" stroke="rgba(5, 25, 41, 1)" xlink:href="#e"/><use x="210" y="150" stroke="rgba(116, 45, 113, 1)" xlink:href="#e"/><use x="210" y="210" stroke="rgba(5, 25, 41, 1)" xlink:href="#e"/><use x="210" y="270" stroke="rgba(23, 23, 24, 1)" xlink:href="#e"/><use x="210" y="330" stroke="rgba(116, 45, 113, 1)" xlink:href="#e"/><use x="210" y="390" stroke="rgba(5, 25, 41, 1)" xlink:href="#e"/><use x="210" y="450" stroke="rgba(5, 25, 41, 1)" xlink:href="#f"/><use x="210" y="510" stroke="rgba(23, 23, 24, 1)" xlink:href="#g"/><use x="210" y="570" stroke="rgba(116, 45, 113, 1)" xlink:href="#g"/><use x="270" y="30" stroke="rgba(116, 45, 113, 1)" xlink:href="#c"/><use x="270" y="90" stroke="rgba(5, 25, 41, 1)" xlink:href="#g"/><use x="270" y="150" stroke="rgba(116, 45, 113, 1)" xlink:href="#c"/><use x="270" y="210" stroke="rgba(23, 23, 24, 1)" xlink:href="#e"/><use x="270" y="270" stroke="rgba(5, 25, 41, 1)" xlink:href="#c"/><use x="270" y="330" stroke="rgba(116, 45, 113, 1)" xlink:href="#e"/><use x="270" y="390" stroke="rgba(116, 45, 113, 1)" xlink:href="#f"/><use x="270" y="450" stroke="rgba(116, 45, 113, 1)" xlink:href="#c"/><use x="270" y="510" stroke="rgba(23, 23, 24, 1)" xlink:href="#e"/><use x="270" y="570" stroke="rgba(116, 45, 113, 1)" xlink:href="#c"/><use x="330" y="30" stroke="rgba(116, 45, 113, 1)" xlink:href="#g"/><use x="330" y="90" stroke="rgba(116, 45, 113, 1)" xlink:href="#d"/><use x="330" y="150" stroke="rgba(116, 45, 113, 1)" xlink:href="#f"/><use x="330" y="210" stroke="rgba(5, 25, 41, 1)" xlink:href="#g"/><use x="330" y="270" stroke="rgba(116, 45, 113, 1)" xlink:href="#c"/><use x="330" y="330" stroke="rgba(23, 23, 24, 1)" xlink:href="#c"/><use x="330" y="390" stroke="rgba(23, 23, 24, 1)" xlink:href="#g"/><use x="330" y="450" stroke="rgba(116, 45, 113, 1)" xlink:href="#e"/><use x="330" y="510" stroke="rgba(116, 45, 113, 1)" xlink:href="#f"/><use x="330" y="570" stroke="rgba(116, 45, 113, 1)" xlink:href="#e"/><use x="390" y="30" stroke="rgba(23, 23, 24, 1)" xlink:href="#e"/><use x="390" y="90" stroke="rgba(5, 25, 41, 1)" xlink:href="#f"/><use x="390" y="150" stroke="rgba(5, 25, 41, 1)" xlink:href="#g"/><use x="390" y="210" stroke="rgba(116, 45, 113, 1)" stroke-width="3" xlink:href="#h"/><use x="390" y="270" stroke="rgba(23, 23, 24, 1)" xlink:href="#c"/><use x="390" y="330" stroke="rgba(23, 23, 24, 1)" xlink:href="#f"/><use x="390" y="390" stroke="rgba(23, 23, 24, 1)" xlink:href="#e"/><use x="390" y="450" stroke="rgba(5, 25, 41, 1)" xlink:href="#c"/><use x="390" y="510" stroke="rgba(116, 45, 113, 1)" xlink:href="#d"/><use x="390" y="570" stroke="rgba(116, 45, 113, 1)" xlink:href="#e"/><use x="450" y="30" stroke="rgba(23, 23, 24, 1)" xlink:href="#e"/><use x="450" y="90" stroke="rgba(5, 25, 41, 1)" xlink:href="#e"/><use x="450" y="150" stroke="rgba(5, 25, 41, 1)" xlink:href="#f"/><use x="450" y="210" stroke="rgba(116, 45, 113, 1)" xlink:href="#c"/><use x="450" y="270" stroke="rgba(23, 23, 24, 1)" xlink:href="#g"/><use x="450" y="330" stroke="rgba(5, 25, 41, 1)" xlink:href="#e"/><use x="450" y="390" stroke="rgba(5, 25, 41, 1)" xlink:href="#g"/><use x="450" y="450" stroke="rgba(23, 23, 24, 1)" xlink:href="#c"/><use x="450" y="510" stroke="rgba(23, 23, 24, 1)" xlink:href="#g"/><use x="450" y="570" stroke="rgba(116, 45, 113, 1)" xlink:href="#c"/><use x="510" y="30" stroke="rgba(23, 23, 24, 1)" xlink:href="#e"/><use x="510" y="90" stroke="rgba(5, 25, 41, 1)" xlink:href="#c"/><use x="510" y="150" stroke="rgba(5, 25, 41, 1)" xlink:href="#f"/><use x="510" y="210" stroke="rgba(23, 23, 24, 1)" xlink:href="#g"/><use x="510" y="270" stroke="rgba(5, 25, 41, 1)" xlink:href="#c"/><use x="510" y="330" stroke="rgba(5, 25, 41, 1)" xlink:href="#e"/><use x="510" y="390" stroke="rgba(116, 45, 113, 1)" xlink:href="#e"/><use x="510" y="450" stroke="rgba(116, 45, 113, 1)" xlink:href="#e"/><use x="510" y="510" stroke="rgba(23, 23, 24, 1)" xlink:href="#g"/><use x="510" y="570" stroke="rgba(5, 25, 41, 1)" xlink:href="#c"/><use x="570" y="30" stroke="rgba(23, 23, 24, 1)" xlink:href="#e"/><use x="570" y="90" stroke="rgba(23, 23, 24, 1)" xlink:href="#c"/><use x="570" y="150" stroke="rgba(116, 45, 113, 1)" xlink:href="#d"/><use x="570" y="210" stroke="rgba(5, 25, 41, 1)" xlink:href="#c"/><use x="570" y="270" stroke="rgba(5, 25, 41, 1)" xlink:href="#c"/><use x="570" y="330" stroke="rgba(23, 23, 24, 1)" xlink:href="#c"/><use x="570" y="390" stroke="rgba(116, 45, 113, 1)" xlink:href="#d"/><use x="570" y="450" stroke="rgba(5, 25, 41, 1)" xlink:href="#c"/><use x="570" y="510" stroke="rgba(5, 25, 41, 1)" xlink:href="#c"/><use x="570" y="570" stroke="rgba(5, 25, 41, 1)" xlink:href="#c"/><use x="630" y="30" stroke="rgba(116, 45, 113, 1)" xlink:href="#e"/><use x="630" y="90" stroke="rgba(23, 23, 24, 1)" xlink:href="#c"/><use x="630" y="150" stroke="rgba(23, 23, 24, 1)" xlink:href="#e"/><use x="630" y="210" stroke="rgba(23, 23, 24, 1)" xlink:href="#e"/><use x="630" y="270" stroke="rgba(116, 45, 113, 1)" xlink:href="#c"/><use x="630" y="330" stroke="rgba(5, 25, 41, 1)" xlink:href="#c"/><use x="630" y="390" stroke="rgba(116, 45, 113, 1)" xlink:href="#c"/><use x="630" y="450" stroke="rgba(116, 45, 113, 1)" xlink:href="#c"/><use x="630" y="510" stroke="rgba(5, 25, 41, 1)" xlink:href="#c"/><use x="630" y="570" stroke="rgba(23, 23, 24, 1)" xlink:href="#c"/><use x="690" y="30" stroke="rgba(5, 25, 41, 1)" xlink:href="#c"/><use x="690" y="90" stroke="rgba(116, 45, 113, 1)" xlink:href="#e"/><use x="690" y="150" stroke="rgba(5, 25, 41, 1)" xlink:href="#c"/><use x="690" y="210" stroke="rgba(23, 23, 24, 1)" xlink:href="#g"/><use x="690" y="270" stroke="rgba(5, 25, 41, 1)" xlink:href="#e"/><use x="690" y="330" stroke="rgba(5, 25, 41, 1)" xlink:href="#g"/><use x="690" y="390" stroke="rgba(116, 45, 113, 1)" xlink:href="#d"/><use x="690" y="450" stroke="rgba(5, 25, 41, 1)" xlink:href="#g"/><use x="690" y="510" stroke="rgba(116, 45, 113, 1)" xlink:href="#e"/><use x="690" y="570" stroke="rgba(23, 23, 24, 1)" xlink:href="#f"/></symbol></svg>